<svg xmlns="http://www.w3.org/2000/svg" width="1200" height="300" viewBox="0 0 1200 300" role="img" aria-labelledby="title desc">
  <title id="title">OS Widgets</title><desc id="desc">Your desktop. Your widgets.</desc>
  <defs>
    <linearGradient id="bg" x1="0" y1="0" x2="1" y2="1"><stop stop-color="#0b1324"/><stop offset="0.5" stop-color="#102b4f"/><stop offset="1" stop-color="#123c65"/></linearGradient>
    <linearGradient id="mark" x1="0" y1="0" x2="1" y2="1"><stop stop-color="#2490ee"/><stop offset="1" stop-color="#54b7ff"/></linearGradient>
    <filter id="shadow" x="-20%" y="-20%" width="140%" height="140%"><feDropShadow dx="0" dy="12" stdDeviation="15" flood-color="#000" flood-opacity=".35"/></filter>
  </defs>
  <rect width="1200" height="300" rx="28" fill="url(#bg)"/>
  <circle cx="1050" cy="-35" r="210" fill="#2490ee" opacity=".08"/><circle cx="1145" cy="285" r="235" fill="#59c2ff" opacity=".05"/>
  <g transform="translate(92 61)" filter="url(#shadow)">
    <rect width="178" height="178" rx="42" fill="url(#mark)" stroke="#a3d8ff" stroke-opacity=".5"/>
    <g fill="#fff"><rect x="38" y="38" width="42" height="42" rx="10"/><rect x="98" y="38" width="42" height="42" rx="10"/><rect x="38" y="98" width="42" height="42" rx="10"/><rect x="98" y="98" width="42" height="42" rx="10"/></g>
  </g>
  <text x="320" y="132" fill="#f6f9ff" font-family="Segoe UI, Inter, Arial, sans-serif" font-size="68" font-weight="700" letter-spacing="-.5">OS Widgets</text>
  <text x="324" y="183" fill="#a9c6e8" font-family="Segoe UI, Inter, Arial, sans-serif" font-size="27">Your desktop. Your widgets.</text>
  <g transform="translate(324 216)"><rect width="132" height="33" rx="16.5" fill="#2490ee" opacity=".2" stroke="#52b2ff" stroke-opacity=".55"/><text x="66" y="22" fill="#bfe5ff" text-anchor="middle" font-family="Segoe UI, Arial" font-size="14" font-weight="600">WINDOWS 10/11</text><rect x="146" width="103" height="33" rx="16.5" fill="#2490ee" opacity=".2" stroke="#52b2ff" stroke-opacity=".55"/><text x="197.5" y="22" fill="#bfe5ff" text-anchor="middle" font-family="Segoe UI, Arial" font-size="14" font-weight="600">v1.2</text></g>
</svg>
